# xmcd CD database file
#
# Track frame offsets:
#	150
#	21727
#	36557
#	59277
#	72340
#	89842
#	115017
#	143315
#	171385
#	191332
#	211895
#	232805
#	258175
#	266440
#	285452
#
# Disc length: 4060 seconds
#
# Revision: 2
# Processed by: cddbd v1.5.1PL2 Copyright (c) Steve Scherf et al.
# Submitted via: CDex 1.51
#
DISCID=d80fda0f
DTITLE=Bourbon Street - jazz@bourbonstreet.ch
DYEAR=1999
DGENRE=Jazz
TTITLE0=Girl Of My Dreams
TTITLE1=Ring Them Bells
TTITLE2=Basin Street Blues
TTITLE3=Hop Head
TTITLE4=Il Treno Va
TTITLE5=El Abanico
TTITLE6=St. Louis Blues
TTITLE7=I Love The Life I Live
TTITLE8=Just A Little While To Stay
TTITLE9=De De De De De De De
TTITLE10=Tiger Rag
TTITLE11=Just A Closer Walk With Thee
TTITLE12=Mabel Rag
TTITLE13=Mississippi Roll On
TTITLE14=Mule Face Blues
EXTD=YEAR: 1999
EXTT0=
EXTT1=
EXTT2=
EXTT3=
EXTT4=
EXTT5=
EXTT6=
EXTT7=
EXTT8=
EXTT9=
EXTT10=
EXTT11=
EXTT12=
EXTT13=
EXTT14=
PLAYORDER=
